<?xml version="1.0" encoding="UTF-8"?>
<svg id="lake" xmlns="http://www.w3.org/2000/svg" width="3000" height="2000" xmlns:xlink="http://www.w3.org/1999/xlink" viewBox="0 0 3000 2000">
  <defs>
    <style>
      .cls-1 {
        fill: url(#linear-gradient);
      }

      .cls-2 {
        fill: #fff;
      }

      .cls-3 {
        fill: url(#linear-gradient-8);
      }

      .cls-4 {
        fill: url(#linear-gradient-9);
      }

      .cls-5 {
        fill: url(#linear-gradient-3);
      }

      .cls-6 {
        fill: url(#linear-gradient-4);
      }

      .cls-7 {
        fill: url(#linear-gradient-2);
      }

      .cls-8 {
        fill: url(#linear-gradient-6);
      }

      .cls-9 {
        fill: url(#linear-gradient-7);
      }

      .cls-10 {
        fill: url(#linear-gradient-5);
      }

      .cls-11 {
        fill: url(#linear-gradient-10);
      }

      .cls-11, .cls-12 {
        opacity: .2;
      }

      .cls-13, .cls-14 {
        opacity: .5;
      }

      .cls-14 {
        fill: url(#linear-gradient-18);
      }

      .cls-15 {
        fill: url(#linear-gradient-14);
      }

      .cls-16 {
        fill: url(#linear-gradient-15);
      }

      .cls-17 {
        fill: url(#linear-gradient-16);
      }

      .cls-18 {
        fill: url(#linear-gradient-17);
      }

      .cls-19 {
        fill: url(#linear-gradient-13);
      }

      .cls-20 {
        fill: url(#linear-gradient-12);
      }

      .cls-21 {
        fill: url(#linear-gradient-11);
      }
    </style>
    <linearGradient id="linear-gradient" x1="1478.05" y1="35.35" x2="1469.18" y2="5329.19" gradientUnits="userSpaceOnUse">
      <stop offset=".11" stop-color="#6df5fc"/>
      <stop offset=".15" stop-color="#6ceef8"/>
      <stop offset=".2" stop-color="#6bdcec"/>
      <stop offset=".26" stop-color="#69bfda"/>
      <stop offset=".32" stop-color="#6696c0"/>
      <stop offset=".39" stop-color="#62629f"/>
      <stop offset=".43" stop-color="#61468e"/>
    </linearGradient>
    <linearGradient id="linear-gradient-2" x1="1209.93" y1="666.63" x2="1097.93" y2="2293.28" gradientUnits="userSpaceOnUse">
      <stop offset="0" stop-color="#fff"/>
      <stop offset=".14" stop-color="#f8fcff"/>
      <stop offset=".33" stop-color="#e6f6ff"/>
      <stop offset=".55" stop-color="#c9ebff"/>
      <stop offset=".68" stop-color="#b5e4ff"/>
    </linearGradient>
    <linearGradient id="linear-gradient-3" x1="1884.82" y1="713.09" x2="1772.82" y2="2339.75" xlink:href="#linear-gradient-2"/>
    <linearGradient id="linear-gradient-4" x1="1728.25" y1="702.32" x2="1616.26" y2="2328.97" xlink:href="#linear-gradient-2"/>
    <linearGradient id="linear-gradient-5" x1="2029.26" y1="723.04" x2="1917.26" y2="2349.69" xlink:href="#linear-gradient-2"/>
    <linearGradient id="linear-gradient-6" x1="778.32" y1="636.91" x2="666.32" y2="2263.57" xlink:href="#linear-gradient-2"/>
    <linearGradient id="linear-gradient-7" x1="1408.45" y1="680.3" x2="1296.45" y2="2306.95" xlink:href="#linear-gradient-2"/>
    <linearGradient id="linear-gradient-8" x1="823.51" y1="640.02" x2="711.51" y2="2266.67" xlink:href="#linear-gradient-2"/>
    <linearGradient id="linear-gradient-9" x1="1253.6" y1="669.64" x2="1141.6" y2="2296.29" xlink:href="#linear-gradient-2"/>
    <linearGradient id="linear-gradient-10" x1="2226.95" y1="736.66" x2="2114.95" y2="2363.31" xlink:href="#linear-gradient-2"/>
    <linearGradient id="linear-gradient-11" x1="1497.63" y1="686.44" x2="1385.64" y2="2313.09" xlink:href="#linear-gradient-2"/>
    <linearGradient id="linear-gradient-12" x1="1619.06" y1="694.8" x2="1507.06" y2="2321.45" xlink:href="#linear-gradient-2"/>
    <linearGradient id="linear-gradient-13" x1="1606.24" y1="693.92" x2="1494.24" y2="2320.57" xlink:href="#linear-gradient-2"/>
    <linearGradient id="linear-gradient-14" x1="1474.79" y1="684.87" x2="1362.8" y2="2311.52" xlink:href="#linear-gradient-2"/>
    <linearGradient id="linear-gradient-15" x1="2538.25" y1="758.09" x2="2426.26" y2="2384.75" xlink:href="#linear-gradient-2"/>
    <linearGradient id="linear-gradient-16" x1="2022.41" y1="722.57" x2="1910.41" y2="2349.23" xlink:href="#linear-gradient-2"/>
    <linearGradient id="linear-gradient-17" x1="2052.9" y1="724.67" x2="1940.91" y2="2351.33" xlink:href="#linear-gradient-2"/>
    <linearGradient id="linear-gradient-18" x1="1376.65" y1="1175.49" x2="1467.32" y2="921.27" gradientUnits="userSpaceOnUse">
      <stop offset="0" stop-color="#285577"/>
      <stop offset=".27" stop-color="#2e798c"/>
      <stop offset=".54" stop-color="#32969d"/>
      <stop offset=".78" stop-color="#35a8a8"/>
      <stop offset=".95" stop-color="#37afac"/>
    </linearGradient>
  </defs>
  <g>
    <rect class="cls-1" x="-166" y="945" width="3283" height="1227"/>
    <g>
      <g class="cls-12">
        <polygon class="cls-7" points="619.67 965.04 1758 981.07 633.87 1009 619.67 965.04"/>
        <polygon class="cls-5" points="1262.33 1009 2443 976.95 2467.67 992.97 1262.33 1009"/>
        <path class="cls-6" d="M804.56,1022.33c26.44-3.33,1797.64-13.33,1797.64-13.33l5.47,16.44-1794.67,8.77-8.44-11.88Z"/>
        <path class="cls-10" d="M2692,1089c-7,0,0-37.33,0-37.33,0,0-1377.33,5.33-1373.67,5.33s1373.67,32,1373.67,32Z"/>
        <path class="cls-8" d="M-128.9,1158.58c8.9-5.58,1748.57,0,1748.57,0l20.33,11.42s-1808,89-1802,76,33.1-87.42,33.1-87.42Z"/>
        <polygon class="cls-9" points="1758 1094.63 992.99 1094.63 1764 1136 1758 1094.63"/>
        <path class="cls-3" d="M-151,1109c7-1,1884,6.31,1884,6.31l-1884,20.69v-27Z"/>
        <path class="cls-4" d="M831.87,1057c2.13-3,802.13,13,802.13,13H818.07l13.8-13Z"/>
      </g>
      <path class="cls-11" d="M3218.33,1810.62c-679.14,3.49-2120.33,11.38-2120.33,11.38l-21,30,2141.33,72.31v-113.69Z"/>
      <g class="cls-12">
        <polygon class="cls-21" points="-99 1262 3023.67 1246 3023.67 1282.94 -112.33 1309 -99 1262"/>
        <path class="cls-20" d="M88,1342H3061l-12,115L88,1342Z"/>
        <polygon class="cls-19" points="2.67 1457 3125.33 1399.5 3125.33 1412.79 -16 1473 2.67 1457"/>
        <polygon class="cls-15" points="360 1510 2485.96 1510 346.67 1558.5 360 1510"/>
        <path class="cls-16" d="M3218.33,1535.28c-397.53,11.91-1477.22,63.05-1477.22,63.05l1477.22,19.73v-82.79Z"/>
        <path class="cls-17" d="M803.87,1697c20.13,0,2329.47-37.33,2329.47-37.33v18.67l-2359.34,85.33,29.87-66.67Z"/>
        <polygon class="cls-18" points="3218.33 1724.74 797.07 1809 738.99 1873 3218.33 1732.9 3218.33 1724.74"/>
      </g>
    </g>
    <rect class="cls-14" x="-166" y="931" width="3249" height="30"/>
  </g>
  <g class="cls-13">
    <path class="cls-2" d="M1484.98,986.98c6.94-.31,13.87-.48,20.81-.73l20.81-.52c13.88-.33,27.75-.47,41.63-.72,13.88-.08,27.75-.25,41.63-.25l20.82,.04c6.94,.09,13.88,.1,20.82,.25-6.94,.31-13.87,.48-20.81,.73l-20.81,.52c-13.88,.32-27.75,.47-41.63,.71-13.88,.08-27.75,.25-41.63,.25l-20.82-.04c-6.94-.08-13.88-.1-20.82-.25Z"/>
    <path class="cls-2" d="M1603.55,998.63c7.32-.19,14.63-.26,21.94-.2,7.31,.03,14.62,.18,21.93,.36,7.31,.21,14.61,.45,21.92,.8,7.3,.32,14.6,.78,21.9,1.36-7.32,.2-14.63,.26-21.94,.2-7.31-.03-14.62-.18-21.93-.36-7.31-.21-14.61-.45-21.92-.8-7.3-.32-14.6-.78-21.9-1.35Z"/>
    <path class="cls-2" d="M1715.52,1015.22c8.99-.44,17.97-.75,26.96-.94,8.99-.21,17.97-.31,26.96-.38,8.99-.04,17.98-.05,26.96,.06,8.99,.08,17.98,.28,26.97,.62-8.99,.44-17.97,.76-26.96,.94-8.99,.21-17.97,.31-26.96,.38-8.99,.03-17.98,.05-26.96-.06-8.99-.08-17.98-.28-26.97-.62Z"/>
    <path class="cls-2" d="M1512.84,1043.5c6.55-.09,13.09-.05,19.64-.08l19.64,.13c13.09,.11,26.18,.4,39.27,.59,13.09,.35,26.17,.62,39.26,1.05l19.63,.69c6.54,.3,13.08,.54,19.62,.9-6.55,.09-13.09,.05-19.64,.08l-19.64-.13c-13.09-.11-26.18-.4-39.27-.59-13.09-.36-26.17-.62-39.26-1.06l-19.63-.69c-6.54-.3-13.08-.54-19.62-.9Z"/>
    <path class="cls-2" d="M1406.77,1068.53c9.43-.45,18.86-.78,28.29-.98,9.43-.23,18.86-.34,28.29-.43,9.43-.05,18.86-.08,28.3,.01,9.43,.06,18.87,.26,28.3,.58-9.43,.46-18.86,.79-28.29,.98-9.43,.23-18.86,.34-28.29,.42-9.43,.05-18.86,.07-28.3-.02-9.43-.06-18.87-.26-28.3-.57Z"/>
    <path class="cls-2" d="M1239.07,1087l36.75,.12,18.37,.02,18.37-.08c24.49-.15,48.98-.37,73.47-.96,24.49-.42,48.97-1.19,73.44-2.04l18.36-.67,18.35-.77,36.71-1.62-18.32,1.37-18.34,1.23-18.35,1.05-18.35,.95c-24.48,1.18-48.97,1.93-73.47,2.5-24.5,.42-49,.67-73.51,.49l-18.38-.2-18.37-.3-18.37-.48-18.36-.62Z"/>
    <path class="cls-2" d="M1448.87,1099.02c10.02-.57,20.04-1.01,30.06-1.32,10.02-.34,20.05-.56,30.07-.77,10.03-.16,20.05-.3,30.08-.32,10.03-.05,20.06,.03,30.09,.24-10.02,.57-20.04,1.01-30.06,1.32-10.02,.34-20.05,.56-30.07,.76-10.03,.16-20.05,.3-30.08,.32-10.03,.05-20.06-.03-30.09-.23Z"/>
    <path class="cls-2" d="M1035.21,1148.04l9.61-.44,9.61-.37,19.22-.73c12.81-.42,25.62-.82,38.44-1.14,12.81-.37,25.63-.6,38.44-.89l38.45-.67,38.45-.45c12.82-.07,25.63-.23,38.45-.23,12.82-.05,25.64-.03,38.46,.02l19.23,.17,9.62,.09,9.62,.16-9.61,.44-9.61,.37-19.22,.73c-12.81,.42-25.62,.82-38.44,1.14-12.81,.37-25.63,.59-38.44,.89l-38.45,.66-38.45,.45c-12.82,.08-25.63,.22-38.45,.22-12.82,.05-25.64,.03-38.46-.02l-19.23-.17-9.62-.09-9.62-.16Z"/>
    <path class="cls-2" d="M769.14,1181.11c13.36-.38,26.71-.57,40.07-.86l40.07-.55c26.72-.36,53.43-.49,80.15-.61,26.72-.05,53.43-.1,80.15,.08l40.08,.29c13.36,.21,26.72,.31,40.08,.6-13.36,.38-26.71,.57-40.07,.87l-40.07,.55c-26.72,.36-53.43,.49-80.15,.61-26.72,.05-53.43,.1-80.15-.09l-40.08-.29c-13.36-.2-26.72-.31-40.08-.6Z"/>
    <path class="cls-2" d="M977.13,1207.26c12.63-.81,25.27-1.43,37.9-2.15l37.91-1.84c25.27-1.22,50.56-2.21,75.84-3.2,25.28-.91,50.57-1.82,75.86-2.5l37.94-1c12.65-.23,25.3-.55,37.95-.69-12.63,.81-25.27,1.43-37.9,2.16l-37.91,1.84c-25.27,1.22-50.56,2.21-75.84,3.19-25.28,.91-50.57,1.82-75.86,2.49l-37.94,1.01c-12.65,.23-25.3,.56-37.95,.69Z"/>
    <path class="cls-2" d="M737.44,1284.32c19.86-.43,39.72-.58,59.58-.84l59.58-.29c39.72-.17,79.43-.02,119.14,.01l119.13,.18,29.78-.02,29.78-.12,59.57-.24-14.88,.64-14.89,.57-29.78,.99-29.78,.69-29.79,.57c-19.86,.37-39.72,.48-59.58,.65l-59.58,.1c-39.72-.13-79.43-.39-119.15-.95l-59.57-.82-29.78-.54-14.89-.25-14.89-.32Z"/>
    <path class="cls-2" d="M1317.9,1176.47c7.17-.76,14.35-1.22,21.53-1.58,3.59-.21,7.18-.31,10.77-.46l10.78-.29,10.78-.13c3.59,.01,7.19-.03,10.78,.04,7.19,.08,14.38,.27,21.58,.75-7.17,.76-14.35,1.23-21.53,1.59-3.59,.21-7.18,.3-10.77,.46l-10.78,.29-10.78,.13c-3.59-.01-7.19,.03-10.78-.04-7.19-.08-14.38-.27-21.58-.75Z"/>
    <path class="cls-2" d="M1421,1134.49c3.72-.75,7.43-1.11,11.14-1.34,3.71-.22,7.42-.28,11.12-.21,3.7,.07,7.4,.28,11.1,.65,3.7,.38,7.39,.89,11.08,1.79-3.72,.76-7.43,1.12-11.14,1.35-3.71,.22-7.42,.28-11.12,.2-3.7-.08-7.4-.29-11.1-.65-3.7-.38-7.39-.89-11.08-1.79Z"/>
    <path class="cls-2" d="M1391.66,994.63c3.84-.49,7.69-.78,11.54-1,3.85-.23,7.7-.35,11.55-.44,3.85-.06,7.7-.09,11.56,0,3.85,.07,7.71,.22,11.57,.56-3.84,.49-7.69,.78-11.54,1-3.85,.23-7.7,.35-11.55,.44-3.85,.05-7.7,.09-11.56,0-3.85-.07-7.71-.22-11.57-.56Z"/>
    <path class="cls-2" d="M1705.66,967.63c3.84-.49,7.69-.78,11.54-1,3.85-.23,7.7-.35,11.55-.44,3.85-.06,7.7-.09,11.56,0,3.85,.07,7.71,.22,11.57,.56-3.84,.49-7.69,.78-11.54,1-3.85,.23-7.7,.35-11.55,.44-3.85,.05-7.7,.09-11.56,0-3.85-.07-7.71-.22-11.57-.56Z"/>
    <path class="cls-2" d="M1371.66,1347.82c17.49-.72,34.99-1.05,52.48-1.24,8.75-.13,17.49-.12,26.24-.17l26.23,.05,26.23,.26c8.74,.16,17.49,.25,26.23,.49,17.49,.4,34.97,.94,52.46,1.88-17.49,.73-34.99,1.06-52.48,1.24-8.75,.13-17.49,.12-26.24,.17l-26.23-.05-26.23-.27c-8.74-.16-17.49-.26-26.23-.49-17.49-.4-34.97-.94-52.46-1.87Z"/>
    <path class="cls-2" d="M1497.87,1400.93c15.27-.75,30.54-1.1,45.81-1.32,7.63-.14,15.27-.15,22.9-.21h22.9s22.9,.23,22.9,.23c7.63,.15,15.27,.23,22.9,.45,15.27,.37,30.53,.89,45.8,1.8-15.27,.75-30.54,1.11-45.81,1.32-7.63,.15-15.27,.14-22.9,.21h-22.9s-22.9-.24-22.9-.24c-7.63-.15-15.27-.23-22.9-.45-15.27-.37-30.53-.89-45.8-1.79Z"/>
    <path class="cls-2" d="M2165.81,1638.77c36.37-1.66,72.74-2.72,109.12-3.58,18.19-.48,36.38-.75,54.57-1.12l54.57-.79,54.58-.46c18.19-.04,36.39-.19,54.58-.12,36.39,.02,72.78,.26,109.17,1.1-36.37,1.66-72.74,2.73-109.12,3.58-18.19,.49-36.38,.75-54.57,1.12l-54.57,.78-54.58,.46c-18.19,.04-36.39,.19-54.58,.12-36.39-.03-72.78-.26-109.17-1.09Z"/>
    <path class="cls-2" d="M2781.79,1619.2c36.38-1.4,72.76-2.2,109.14-2.79,18.19-.35,36.38-.49,54.57-.73l54.58-.4,54.58-.07c18.19,.09,36.39,.07,54.58,.27,36.39,.29,72.77,.78,109.16,1.88-36.38,1.4-72.76,2.21-109.14,2.8-18.19,.36-36.38,.49-54.58,.73l-54.58,.39-54.58,.07c-18.19-.09-36.39-.07-54.58-.27-36.39-.29-72.77-.78-109.16-1.87Z"/>
    <path class="cls-2" d="M2392.21,1684.32c34.96-2.01,69.93-3.43,104.91-4.64,17.49-.66,34.98-1.11,52.47-1.65l52.47-1.32,52.48-1c17.5-.22,34.99-.55,52.49-.65,35-.33,70-.45,105.01,.03-34.96,2.02-69.93,3.44-104.91,4.65-17.49,.66-34.98,1.1-52.47,1.65l-52.48,1.31-52.48,.99c-17.5,.22-34.99,.54-52.49,.65-35,.33-70,.45-105.01-.03Z"/>
    <path class="cls-2" d="M2265.45,1747.92c12.51-1.29,25.03-1.98,37.55-2.47,6.26-.3,12.52-.38,18.78-.57,6.26-.12,12.52-.15,18.78-.24,12.52-.06,25.04,.13,37.56,.52,12.52,.39,25.04,1,37.56,2.2-12.51,1.3-25.03,2-37.55,2.48-12.52,.48-25.03,.77-37.55,.8-6.26-.03-12.52-.02-18.78-.1-6.26-.14-12.52-.18-18.78-.43-12.52-.39-25.04-1-37.56-2.19Z"/>
    <path class="cls-2" d="M2139.45,1532.92c12.51-1.29,25.03-1.98,37.55-2.47,6.26-.3,12.52-.38,18.78-.57,6.26-.12,12.52-.15,18.78-.24,12.52-.06,25.04,.13,37.56,.52,12.52,.39,25.04,1,37.56,2.2-12.51,1.3-25.03,2-37.55,2.48-12.52,.48-25.03,.77-37.55,.8-6.26-.03-12.52-.02-18.78-.1-6.26-.14-12.52-.18-18.78-.43-12.52-.39-25.04-1-37.56-2.19Z"/>
    <path class="cls-2" d="M2610.45,1535.92c12.51-1.29,25.03-1.98,37.55-2.47,6.26-.3,12.52-.38,18.78-.57,6.26-.12,12.52-.15,18.78-.24,12.52-.06,25.04,.13,37.56,.52,12.52,.39,25.04,1,37.56,2.2-12.51,1.3-25.03,2-37.55,2.48-12.52,.48-25.03,.77-37.55,.8-6.26-.03-12.52-.02-18.78-.1-6.26-.14-12.52-.18-18.78-.43-12.52-.39-25.04-1-37.56-2.19Z"/>
    <path class="cls-2" d="M2641.45,1776.34c29.99-1.42,59.99-2.24,89.99-2.86,15-.36,30-.51,45-.76l45-.43,45-.1c15,.08,30,.05,45,.24,30,.26,60.01,.74,90.01,1.82-29.99,1.42-59.99,2.25-89.99,2.87-15,.37-30,.51-45,.76l-45,.42-45,.1c-15-.08-30-.05-45-.24-30-.27-60.01-.74-90.01-1.81Z"/>
    <path class="cls-2" d="M2576.55,1851.61c13.66-1.73,27.34-2.87,41.03-3.81,6.84-.52,13.69-.83,20.54-1.24l20.55-.9c13.7-.51,27.42-.76,41.14-.82,13.72-.05,27.45,.11,41.2,.86-13.66,1.74-27.34,2.88-41.03,3.82-13.69,.93-27.39,1.66-41.09,2.13l-20.56,.57c-6.86,.08-13.71,.27-20.57,.24-13.72,.05-27.45-.11-41.2-.85Z"/>
    <path class="cls-2" d="M2797.55,1888.94c13.75-.79,27.47-.99,41.19-.97,6.86-.05,13.72,.11,20.58,.18l20.56,.51c13.71,.43,27.4,1.13,41.1,2.01,13.69,.89,27.38,2,41.04,3.7-13.75,.8-27.47,1-41.2,.98-13.72-.02-27.43-.23-41.14-.7l-20.55-.84c-6.85-.39-13.7-.68-20.54-1.18-13.69-.89-27.38-1.99-41.04-3.69Z"/>
    <path class="cls-2" d="M1972.11,1566.28c14.89-1.21,29.78-1.84,44.67-2.25,7.44-.26,14.89-.31,22.33-.46l22.33-.12c14.89,.01,29.78,.28,44.67,.74,14.89,.47,29.78,1.15,44.66,2.42-14.89,1.22-29.78,1.85-44.67,2.26-14.89,.41-29.78,.62-44.67,.57l-22.33-.21c-7.44-.18-14.89-.25-22.33-.54-14.89-.47-29.78-1.15-44.66-2.42Z"/>
    <path class="cls-2" d="M1561.72,1576.21c4.06-.96,8.13-1.51,12.2-1.96,4.07-.42,8.15-.69,12.23-.82,4.08-.13,8.17-.13,12.26,.03,4.09,.19,8.19,.47,12.3,1.18-4.06,.97-8.13,1.52-12.2,1.96-4.07,.42-8.15,.69-12.23,.82-4.08,.13-8.17,.12-12.26-.04-4.09-.19-8.19-.47-12.3-1.17Z"/>
    <path class="cls-2" d="M1107.8,1315.94c4.09-.81,8.18-1.2,12.26-1.5,4.09-.27,8.17-.39,12.26-.37,4.08,.02,8.17,.18,12.25,.49,4.08,.34,8.17,.78,12.25,1.64-4.09,.82-8.18,1.21-12.26,1.51-4.09,.27-8.17,.39-12.26,.36-4.08-.02-8.17-.18-12.25-.5-4.08-.34-8.17-.78-12.25-1.63Z"/>
    <path class="cls-2" d="M860.8,1375.94c4.09-.81,8.18-1.2,12.26-1.5,4.09-.27,8.17-.39,12.26-.37,4.08,.02,8.17,.18,12.25,.49,4.08,.34,8.17,.78,12.25,1.64-4.09,.82-8.18,1.21-12.26,1.51-4.09,.27-8.17,.39-12.26,.36-4.08-.02-8.17-.18-12.25-.5-4.08-.34-8.17-.78-12.25-1.63Z"/>
  </g>
</svg>