<?xml version="1.0" encoding="UTF-8"?>
<svg id="clouds" xmlns="http://www.w3.org/2000/svg" width="3000" height="2000" xmlns:xlink="http://www.w3.org/1999/xlink" viewBox="0 0 3000 2000">
  <defs>
    <style>
      .cls-1 {
        fill: url(#linear-gradient);
      }

      .cls-2 {
        opacity: .1;
      }

      .cls-3 {
        fill: url(#linear-gradient-8);
      }

      .cls-4 {
        fill: url(#linear-gradient-9);
      }

      .cls-5 {
        fill: url(#linear-gradient-2);
      }

      .cls-6 {
        fill: url(#linear-gradient-6);
      }

      .cls-7 {
        fill: url(#linear-gradient-7);
      }

      .cls-8 {
        fill: url(#linear-gradient-5);
      }

      .cls-9, .cls-10, .cls-11 {
        opacity: .2;
      }

      .cls-12 {
        fill: url(#linear-gradient-10);
      }

      .cls-13 {
        fill: url(#linear-gradient-11);
      }

      .cls-10 {
        fill: url(#linear-gradient-3);
      }

      .cls-11 {
        fill: url(#linear-gradient-4);
      }
    </style>
    <linearGradient id="linear-gradient" x1="827.73" y1="467.85" x2="1778.79" y2="467.85" gradientUnits="userSpaceOnUse">
      <stop offset=".06" stopColor="#fff"/>
      <stop offset=".1" stopColor="#fbfeff"/>
      <stop offset=".12" stopColor="#f1feff"/>
      <stop offset=".15" stopColor="#e0feff"/>
      <stop offset=".18" stopColor="#c8feff"/>
      <stop offset=".19" stopColor="#b5feff"/>
    </linearGradient>
    <linearGradient id="linear-gradient-2" x1="900.95" y1="517.29" x2="1629.45" y2="517.29" xlink:href="#linear-gradient"/>
    <linearGradient id="linear-gradient-3" x1="2504.29" y1="517.09" x2="3160.61" y2="517.09" xlink:href="#linear-gradient"/>
    <linearGradient id="linear-gradient-4" x1="-219.27" y1="205.7" x2="617.06" y2="205.7" gradientTransform="translate(-27.86 21.48) rotate(-11.82)" xlink:href="#linear-gradient"/>
    <linearGradient id="linear-gradient-5" x1="-228.09" y1="466.22" x2="2111.76" y2="466.22" xlink:href="#linear-gradient"/>
    <linearGradient id="linear-gradient-6" x1="1803.59" y1="400.43" x2="3134" y2="400.43" xlink:href="#linear-gradient"/>
    <linearGradient id="linear-gradient-7" x1="401.1" y1="99.61" x2="1919.65" y2="99.61" gradientTransform="translate(25.64 241.56) rotate(-12.2)" xlink:href="#linear-gradient"/>
    <linearGradient id="linear-gradient-8" x1="2583.87" y1="135.47" x2="3249.76" y2="135.47" xlink:href="#linear-gradient"/>
    <linearGradient id="linear-gradient-9" x1="-142.9" y1="111.39" x2="1160.76" y2="111.39" xlink:href="#linear-gradient"/>
    <linearGradient id="linear-gradient-10" x1="2255.52" y1="73.09" x2="3330.25" y2="73.09" gradientTransform="translate(59.97 -794.87) rotate(17.82)" xlink:href="#linear-gradient"/>
    <linearGradient id="linear-gradient-11" x1="1434.1" y1="155.97" x2="1974.06" y2="155.97" xlink:href="#linear-gradient"/>
  </defs>
  <g>
    <g class="cls-9">
      <path class="cls-1" d="M1637.71,578.83c-4.84-12.11-15.22-22.57-29.27-27.8-8.36-3.12-16.96-3.99-24.99-2.92-7.34-8.36-17.03-15.2-28.52-19.49-20.74-7.74-42.52-5.34-58.84,4.65-5.62-8.5-14.21-15.53-24.93-19.53-15.78-5.89-32.38-3.77-44.48,4.29-3.42-9.95-9.71-18.29-17.75-23.75,.23-2.71,.34-5.47,.34-8.25,0-49.14-35.63-88.98-79.57-88.98-3.91,0-7.74,.31-11.49,.92,0,0,0,0,0,0-11.52-34.68-41.38-59.4-76.4-59.4-38.52,0-70.79,29.89-79.29,70.05,0,0,0,0,0,0-9.51-7.3-21.02-11.58-33.42-11.58-18.34,0-34.73,9.34-45.58,23.99-3.61-32.63-28.5-57.89-58.66-57.89-23.81,0-44.34,15.74-53.69,38.42-1.1-.5-2.23-.96-3.38-1.39-23.5-8.77-48.81,.22-58.39,20.09l-81.66-19.59c.93,.36,31.23,11.99,78.58,28.75,18.54,6.56,39.69,13.9,62.73,21.64,8.82,2.97,17.93,6.01,27.27,9.08,20.76,6.84,42.69,13.86,65.31,20.86,3.81,1.18,7.66,2.36,11.52,3.53,31.12,9.51,63.41,18.88,95.69,27.54,31.86,8.55,63.72,16.41,94.47,23.02,1.29,.28,2.58,.55,3.86,.82,24.74,5.25,51.37,10.14,79.03,14.69,10.82,1.79,21.8,3.51,32.88,5.19,10.26,1.55,20.63,3.06,31.03,4.52,4.01,.57,8.02,1.13,12.04,1.68h0c16.3,2.23,32.66,4.35,48.96,6.36,9.84,1.21,19.64,2.39,29.39,3.53,15.97,1.86,31.77,3.62,47.24,5.26,17.48,1.87,34.56,3.6,51.01,5.2,14.25,1.39,28.02,2.68,41.18,3.86,78.26,7.07,134.61,10.65,138.86,10.91l-141.08-18.3Z"/>
      <path class="cls-5" d="M900.95,437.71c29.42,10.33,58.99,20.17,88.72,29.47,7.44,2.29,14.85,4.69,22.31,6.94,7.46,2.25,14.89,4.56,22.36,6.75l22.4,6.62,22.44,6.46,22.49,6.27,22.52,6.16,22.57,5.98,22.62,5.76,22.66,5.59c7.57,1.78,15.12,3.66,22.7,5.37,7.59,1.69,15.15,3.5,22.76,5.07l11.4,2.43c3.8,.81,7.63,1.56,11.44,2.34,30.48,6.35,61.05,12.29,91.68,17.8l22.98,4.09c7.67,1.3,15.34,2.64,23.02,3.89,15.36,2.49,30.73,4.95,46.12,7.3,61.58,9.3,123.46,16.83,185.31,24.85-62.2-4.51-124.33-10.21-186.23-18.3-7.74-.97-15.47-2.08-23.2-3.11-7.73-1.06-15.44-2.27-23.16-3.4-7.72-1.16-15.42-2.41-23.13-3.61l-23.1-3.81c-30.77-5.28-61.42-11.18-92-17.4-30.59-6.3-61.04-13.46-91.24-21.35l-22.62-6.07-22.55-6.28-22.49-6.49-22.41-6.76c-14.91-4.6-29.81-9.24-44.63-14.12-14.82-4.89-29.6-9.88-44.32-15.04-29.41-10.41-58.65-21.32-87.41-33.4Z"/>
    </g>
    <path class="cls-10" d="M3111.98,466.33h0c-6.74-9.81-18.38-16.93-32.16-18.38-23.29-2.46-43.94,12.16-46.1,32.65-.05,.5-.09,1-.12,1.49-4.7-1.67-9.71-2.82-14.94-3.37-8.34-.88-16.45-.16-23.9,1.9-12.24-10.52-28.31-17.72-46.39-19.63-.75-.08-1.5-.15-2.25-.21-13.47-23.48-39.66-40.88-71.22-44.21-31.83-3.36-61.31,8.41-79.34,28.87-.34-.04-.67-.08-1.01-.12-42.51-4.49-80.16,22.18-84.11,59.57-.7,6.59-.29,13.08,1.07,19.32,0,0,0,0,0,0-27.35-2.34-51.9,11.86-60.79,33.51-7.38-5.04-16.33-8.45-26.18-9.49-28.46-3-53.67,14.85-56.31,39.88-.75,7.13,.41,14.07,3.11,20.42l-67.01,9.5s27.65,.73,71.83-.92c24.45-.92,53.96-2.56,86.65-5.46,1.73-.16,3.46-.31,5.21-.48,12.92-1.18,26.32-2.57,40.08-4.19,17.61-2.06,35.81-4.51,54.36-7.4,6.79-1.05,13.63-2.16,20.5-3.35,8.58-1.47,17.2-3.03,25.85-4.7,10.15-1.95,20.34-4.05,30.54-6.3,11.18-2.46,23.26-5.79,35.96-9.77,2.39-.74,4.8-1.52,7.23-2.32,1.03-.34,2.07-.68,3.11-1.02,0,0,.01,0,.01,0,11.29-1.9,21.85-5.71,31.18-11.09,13.64-5.14,27.61-10.75,41.61-16.62,19.97-8.38,40.01-17.31,59.3-26.24,8.27-3.83,16.42-7.66,24.35-11.44,5.63-2.69,11.16-5.36,16.57-7.98,21.01-10.21,40.11-19.85,55.97-28.01,27.77-14.28,45.55-24.01,46.02-24.26l-48.63,19.84Z"/>
    <path class="cls-11" d="M579.2,237.01h0c-3.57-15.05-14.33-29.11-30.34-37.34-27.06-13.89-58.91-5.86-71.14,17.95-.3,.58-.58,1.17-.85,1.75-4.91-4.22-10.44-7.96-16.52-11.09-9.69-4.98-19.85-7.89-29.84-8.9-9.89-18.48-25.98-34.73-46.99-45.52-.88-.45-1.75-.88-2.63-1.31-5.31-34.75-28.88-68.09-65.55-86.92-36.98-18.99-78.2-18.54-109.62-2.21-.39-.21-.78-.42-1.17-.62-49.38-25.35-107.49-10.7-129.79,32.74-3.93,7.66-6.48,15.71-7.76,23.9,0,0,0,0,0,0-32.03-15.65-68.41-9.95-89.33,12.1-6.58-9.57-15.82-17.89-27.27-23.76-33.06-16.97-71.96-7.16-86.89,21.92-4.25,8.28-6.1,17.23-5.8,26.19l-85.61-19.9s33.15,13.84,87.43,32.54c30.05,10.35,66.56,22.18,107.51,33.99,2.17,.62,4.34,1.25,6.53,1.87,16.21,4.62,33.08,9.22,50.5,13.7,22.3,5.75,45.49,11.32,69.31,16.52,8.72,1.91,17.52,3.76,26.4,5.55,11.07,2.24,22.25,4.39,33.52,6.42,13.21,2.39,26.53,4.62,39.94,6.68,14.69,2.25,30.88,3.89,48.13,5.02,3.24,.22,6.53,.41,9.85,.58,1.41,.07,2.82,.15,4.25,.22,0,0,.02,0,.02,0,14.56,2.99,29.14,3.32,42.96,1.18,18.93,.17,38.48-.08,58.18-.63,28.11-.79,56.57-2.21,84.12-3.99,11.82-.76,23.47-1.59,34.85-2.45,8.09-.62,16.03-1.26,23.8-1.9,30.23-2.53,57.88-5.24,80.91-7.7,40.33-4.28,66.42-7.74,67.1-7.83l-68.2,1.24Z"/>
  </g>
  <g class="cls-2">
    <path class="cls-8" d="M1658.85,651.31l-186.49-28.28-81.69-18.19-12.24-8.8s-131-33.71-146.67-29.71c-15.67,4-97.63,4.61-97.63,4.61,0,0-21.04-14.33-53.04-17.97-32-3.64-59.11-31.64-79.56-36.64-20.44-5-100.44-38.84-100.44-38.84,0,0-17.53-19.61-16.77-20.88,.77-1.28-164.77-51.28-164.77-51.28l-63.8-45.3-77.33-38.11-114.67-35.19s-96.33,10.6-112,10.1c-15.67-.5-113.11,1.1-117.89,1.3-4.78,.2-170.11-50.97-170.11-50.97,0,0-40.33,35.97-64,39.57-23.67,3.6-97.75,.6-97.75,.6H-228.09l119.41,213.67s159.44-41.16,183.11-38.91c23.67,2.25,159.44,0,159.44,0,0,0,183.26-5.75,190.74-4.75s31.48-5.98,60.48,9.51c29,15.49,109.33,32.71,122.67,45.6,13.33,12.89,172.09,57.89,181.71,59.39s116.95,26.5,116.95,26.5c0,0,227.33,31,240,35,12.67,4,101,21.96,109.33,17.98,8.33-3.98,149.33,28.02,157.33,27.02s168,5,168,5c0,0,185.68-10,208.84,0,23.16,10,321.83-21.93,321.83-21.93h-277.76l-175.16-10.09Z"/>
    <path class="cls-6" d="M3001.67,216.65l-34.67,30.85s-31.33,29.17-42.67,28.17c-11.33-1-40.33,.6-53.33,22.8s-75,59.6-99,61.9c-24,2.3-69,25.3-77,27.3s-72,40.51-72,40.51c0,0-53,14.49-68,14.49s-70.83,6-73.41,15-31.72,53.22-51.65,55.11c-19.93,1.89-41.93,13.05-41.93,13.05,0,0-99.64,11.49-111.82,9.16-12.18-2.33-66.52,7.67-66.52,7.67,0,0-60.85,8.28-67.76,10.14-6.91,1.86-46.91,7.42-46.91,7.42l-98.67-10.56s-52.22,5-81.78,17c-29.56,12-110.97,38.51-110.97,38.51,17.41,.49,135.01-16.03,147.71-16.27,12.7-.24,87.7,7.86,95.7,8.31,8,.45,94.91,1.45,94.91,1.45l34.22-17,137.54-24.72,74.33-7.28,56-23.84,132-56.9,113.67-11.26s51-26,66.67-42c15.67-16,61-37.88,77.33-42.44,16.33-4.56,69.33-43.56,69.33-43.56l88-42.6,127.11-23.07h15.89v-68.33l-84.33,4-48,16.98Z"/>
    <path class="cls-7" d="M573.89-45.82l18.57-4.02s86.95-37.91,88.71-29.76c1.76,8.14,51.65,54.31,51.65,54.31l48.17,14.13,94,42.42,57.7,39.7s29.59,61.12,31.92,71.88c2.33,10.75,134.24,71.91,134.24,71.91,0,0,28.45,50.46,46.12,49.7,17.67-.75,99.41,2.03,99.41,2.03,0,0,74.04,50.49,83.55,56.61,9.51,6.13,113.94,45.49,113.94,45.49,0,0,74.1,12.05,88.68,17.08,14.58,5.03,80.36,18.01,80.36,18.01,0,0,18.6,1.91,93.2,18.82,74.6,16.91,200.5,2.97,200.5,2.97l121.36-16.02-125.74-4.23-106.3,3.64s-91.33-24.22-117.1-27.03c-25.77-2.8-73.35-12.56-73.35-12.56,0,0-72.38-28.7-92.38-31.56-19.99-2.86-77.48-19.07-84.37-19.62s-93.19-20.42-93.19-20.42c0,0-28.65-67.81-41.45-65.04-12.8,2.77-46.15,1.8-55.32-1.33-9.18-3.13-45.6-20.15-45.6-20.15l-102.47-43.31-68.61-94.29-40.25-35.29,12.06-95.03-83.48-69.59s-75.93-76.68-91.12-94.88c-15.19-18.2-83.11-72.06-80.98-85.82S346.79-170.96,346.79-170.96l106.15,72.53,120.95,52.62Z"/>
    <path class="cls-3" d="M3084.1-4.67c-18,10-112,58-112,58,0,0-43,66-64,88s-48,51.96-61,64.98c-13,13.02-74.67,59.02-74.67,59.02l-48,39.19-34.33,31.81-8.33,13.7s-24.67-2.66-41.67,1.32c-17,3.98-56.22,11.54-56.22,11.54l89.89,11.72s70.67-8.88,88-24.58c17.33-15.7,34.67-54.7,48-63.2,13.33-8.5,42.33-44.84,69.33-49.67,27-4.83,37.67-14.35,61.33-20.59,23.67-6.24,14.15-3.24,71.41-27.24,57.26-24,61.59-49.72,93.93-53.86,32.33-4.14,144,0,144,0l-34.67-239.14s-113,89-131,99Z"/>
    <path class="cls-4" d="M158.1,7.47c64,16.86,192,32.86,192,32.86l77.17,2.67s64.83,29.33,77.83,37.33,71.67,28.83,71.67,28.83l74.67,28.17s61.6,25.33,85.14,33.67c23.53,8.33,138.86,75.61,138.86,75.61l109.33,64.72,176,63.11-168-84.11-125.33-66.98s-130.67-86.35-160-97.69c-29.33-11.33-216.33-80.33-229.33-93.33S315.1-42.67,307.1-50.67s-90.67,10-122.33,0c-31.67-10-132.67-36-151.67-42s-176-59-176-59V-31.67C-113.9-20.67,129.12,7.47,129.12,7.47c0,0-35.02-16.86,28.98,0Z"/>
    <path class="cls-12" d="M2257.29,353.7s31.59-40.31,49.86-45.97c18.28-5.66,43.74,9.88,63.22-1.71,19.48-11.59,61.91-32.47,61.91-32.47,0,0,66.21-22.98,77.77-36.07,11.56-13.09,51.89-47.39,51.89-47.39,0,0,15.87-33.76,36.46-30.3,20.59,3.47,57.84-14.36,57.84-14.36l73.23-41.54,102.04-59.28,44.41-17.24s49.18,5.31,65.6,7.43c16.41,2.13,72.38,1.21,88.12-5.28,15.74-6.49,42.17-17.91,42.17-17.91,0,0,44.43-16.22,62.11-18.94,17.68-2.72,67.57-9.79,67.57-9.79l119.83-41.66s-127.08-74.12-137.55-77.48-172.68,57.93-172.68,57.93l-23.3,38.73-37.83,12.04-49.28,4.07-77.22,34.35s-15.06,1.11-25.13,6.28c-10.06,5.17-36.11,24.11-36.11,24.11,0,0-26.96,21.79-35.09,30.74-8.13,8.94-27.62,19.48-43.31,31.25-15.69,11.76-33.88,25.87-33.88,25.87,0,0-39.99-6.29-50.82-2.03-10.83,4.27-38.42,6.95-43.13,19.09-4.72,12.14-26.45,30.71-26.45,30.71l-49.84,40-36.66,23.23-57.4,18.46-27.57,20.4s-27.71-18.36-43.45-11.87c-15.74,6.49-64.06,33.23-64.06,33.23l-17.83,18.23s-29.04,13.72-37.56,15.18c-8.52,1.46-133.31,13.87-133.31,13.87l113.66,12.38,81.77-6.27Z"/>
    <path class="cls-13" d="M1640.96,152.73l37.51,11.4,67.56,31.2,29.06,12,46,20.02,34,11.54,43.59,7.17,75.37,4.55-75.37-18.91-77.59-27.36-75.06-32-78.32-31s-35.99-31.89-52.31-25.95c-16.31,5.95-37.31-3.94-45.31,0s-136-54.05-136-54.05c0,0,81.39,63.67,96.7,68.33,15.3,4.67,110.17,23.07,110.17,23.07Z"/>
  </g>
</svg>